<svg width="777" height="776" fill="none" xmlns="http://www.w3.org/2000/svg"><path d="M0 483V289a93 93 0 0 1 93-93h5a99 99 0 0 0 99-98v-3a93 93 0 1 1 93 94h-5a99 99 0 0 0-98 98v196a93 93 0 0 1-187 0ZM394 290a93 93 0 1 1 186 0 93 93 0 0 1-186 0Z" fill="#32E388"/><path d="M394 93a93 93 0 1 1 186 0 93 93 0 0 1-186 0Z" fill="#D9E3E3"/><path d="M197 488a93 93 0 1 1 186 0 93 93 0 0 1-186 0Z" fill="#6B32E3"/><path d="M777 294v194a93 93 0 0 1-93 93h-5a99 99 0 0 0-99 98v3a93 93 0 1 1-93-94h5a99 99 0 0 0 98-98V294a93 93 0 0 1 187 0Z" fill="#32E388"/><path d="M383 682a93 93 0 1 1-186 0 93 93 0 0 1 186 0Z" fill="#6B32E3"/><path d="M486 581a95 95 0 0 1-93-80l-2-25c-2-24-13-46-31-63a99 99 0 0 0-70-27 94 94 0 1 1 95-93 101 101 0 0 0 102 99 94 94 0 0 1 14 187l-15 2Z" fill="#D9E3E3"/></svg>