<svg width="968" height="967" fill="none" xmlns="http://www.w3.org/2000/svg"><path d="M893 162h-14a81 81 0 0 1-74-81v-3a78 78 0 1 0-79 78h3a81 81 0 0 1 81 82v5a81 81 0 0 1-81 81h-3a78 78 0 1 0 79 78v-3a81 81 0 0 1 81-81h2a78 78 0 0 0 5-156ZM407 804h-14a81 81 0 0 0-74 81v3a78 78 0 1 1-79-78h4a81 81 0 0 0 80-82v-5a81 81 0 0 0-81-81h-2a78 78 0 1 1 78-78v3a81 81 0 0 0 81 81h2a78 78 0 0 1 5 156Z" fill="#fff"/><path d="M564 0a78 78 0 0 1 77 66l1 21c2 20 12 38 26 52 16 15 37 23 59 23a78 78 0 1 1-80 77 83 83 0 0 0-84-83A78 78 0 0 1 551 1l13-1ZM78 966a78 78 0 0 0 77-66l2-21c2-20 11-38 26-52 15-15 36-23 58-23a78 78 0 1 0-79-77 83 83 0 0 1-85 83 78 78 0 0 0-11 155l12 1Z" fill="#fff"/><path d="M486 241a78 78 0 1 1 157 0 78 78 0 0 1-157 0ZM0 725a78 78 0 1 0 157 0 78 78 0 0 0-157 0ZM486 887a78 78 0 1 1 157 1 78 78 0 0 1-157-1ZM0 79a78 78 0 1 0 157-1A78 78 0 0 0 0 79ZM809 78a78 78 0 1 1 157 1 78 78 0 0 1-157-1ZM323 888a78 78 0 1 0 157-1 78 78 0 0 0-157 1ZM809 402a78 78 0 1 1 157 0 78 78 0 0 1-157 0ZM323 564a78 78 0 1 0 157 0 78 78 0 0 0-157 0Z" fill="#fff"/><path d="M809 564a78 78 0 1 1 157 0 78 78 0 0 1-157 0ZM323 402a78 78 0 1 0 157 0 78 78 0 0 0-157 0Z" fill="#fff"/><path d="M805 728V565a78 78 0 0 0-78-78h-4c-22 0-41-8-56-24a83 83 0 0 1-25-58v-2a78 78 0 1 0-78 78h4c22 0 43 9 59 24 15 16 21 37 21 59v164a78 78 0 0 0 157 0ZM319 238v163a78 78 0 0 1-78 78h-4c-22 0-40 8-56 24a83 83 0 0 0-24 58v2a78 78 0 1 1-78-78h4c22 0 43-9 58-24 16-16 22-37 22-59V238a78 78 0 0 1 156 0Z" fill="#fff"/><path d="M486 563v162a78 78 0 0 0 78 78h4a83 83 0 0 1 80 82v3a78 78 0 1 0 78-78h-4a80 80 0 0 1-80-82V562a78 78 0 0 0-156 0ZM0 403V241a78 78 0 0 1 78-78h4c22 0 41-9 56-24 16-16 25-37 25-59v-2a78 78 0 1 1 78 79h-4c-22 0-43 8-59 24a80 80 0 0 0-21 58v164a78 78 0 0 1-157 0Z" fill="#fff"/><path d="M810 888a78 78 0 0 0 134 55c15-15 23-35 23-55V725a78 78 0 0 0-133-54 78 78 0 0 0-24 54v163ZM325 78a78 78 0 0 1 134-55c14 15 23 35 23 55v163a78 78 0 0 1-134 54 78 78 0 0 1-23-54V78Z" fill="#fff"/></svg>