<svg width="22" height="22" fill="none" xmlns="http://www.w3.org/2000/svg"><path d="M10 5h1c3.2 0 6.2 2.3 8 6l-1 1.6a1 1 0 1 0 1.7 1A15.8 15.8 0 0 0 21 11v-.4C18.8 5.9 15 3 11 3l-1.4.1a1 1 0 1 0 .3 2ZM2.6 1.4a1 1 0 1 0-1.4 1.4l3 3.1C3 7.2 2 8.8 1.2 10.6a1 1 0 0 0 0 .8C3 16.1 6.9 19 11 19c1.8 0 3.6-.5 5-1.5l3.3 3.2a1 1 0 0 0 1.6-.3 1 1 0 0 0-.2-1.1l-18-18Zm6.4 9.2 2.4 2.4-.5.1a2 2 0 0 1-2-2.5ZM11 17c-3.2 0-6.2-2.3-7.9-6a12 12 0 0 1 2.7-3.8L7.6 9a4 4 0 0 0 5.4 5.4l1.6 1.6c-1.1.6-2.3 1-3.6 1Z" fill="#000"/></svg>